<?xml version="1.0" standalone="no"?>
<!DOCTYPE svg PUBLIC "-//W3C//DTD SVG 20010904//EN"
 "http://www.w3.org/TR/2001/REC-SVG-20010904/DTD/svg10.dtd">
<svg version="1.0" xmlns="http://www.w3.org/2000/svg"
 width="120.000000pt" height="120.000000pt" viewBox="0 0 120.000000 120.000000"
 preserveAspectRatio="xMidYMid meet">
<metadata>
Created by potrace 1.14, written by Peter Selinger 2001-2017
</metadata>
<g transform="translate(0.000000,120.000000) scale(0.100000,-0.100000)"
fill="#000000" stroke="none">
<path d="M48 1183 c-14 -9 -31 -27 -37 -40 -15 -33 -15 -1053 0 -1086 6 -13
23 -31 39 -40 25 -15 81 -17 549 -17 353 0 528 3 544 11 13 6 31 23 40 39 15
25 17 81 17 549 0 353 -3 528 -11 544 -6 13 -23 31 -39 40 -25 15 -81 17 -552
17 -469 -1 -526 -2 -550 -17z"/>
</g>
</svg>
